<svg width="150" height="150" viewBox="0 0 150 150" fill="none" xmlns="http://www.w3.org/2000/svg">
<g clip-path="url(#clip0)">
<path d="M67.6636 66.8445H58.0686V28.3048L53.2713 18.7102L48.4741 28.3051V66.8445H38.8792V27.1854C38.8792 26.3859 39.0389 25.7462 39.3588 25.1065L48.9537 5.91666C49.7532 4.31766 51.3525 3.198 53.2713 3.198C55.1902 3.198 56.7895 4.15758 57.589 5.91666L67.1839 25.1065C67.5038 25.7462 67.6636 26.5457 67.6636 27.1854V66.8445Z" fill="white"/>
<path d="M106.043 0H86.8533C84.1347 0 82.056 2.07894 82.056 4.7973V66.8442H91.6509V28.7847H101.246V66.8445H110.841V4.7973C110.84 2.07894 108.762 0 106.043 0ZM91.6506 19.1898V9.5949H101.246V19.1898H91.6506Z" fill="white"/>
<path d="M125.073 64.1259C124.113 63.1663 122.834 62.5269 121.555 62.5269H28.1646C26.7254 62.5269 25.4459 63.1666 24.6464 64.1259C23.6868 65.0854 23.367 66.5247 23.5271 67.9639L33.122 145.842C33.4418 148.241 35.5208 150 37.9193 150H112.12C114.518 150 116.597 148.241 116.917 145.842L126.512 67.9639C126.512 66.5247 126.032 65.2452 125.073 64.1259ZM42.0772 140.405L39.8384 122.815H109.881L107.642 140.405H42.0772ZM111.001 113.22H38.7191L33.6019 72.1218H116.118L111.001 113.22Z" fill="#E6004C"/>
</g>
<defs>
<clipPath id="clip0">
<rect width="150" height="150" fill="white"/>
</clipPath>
</defs>
</svg>
