<svg width="40" height="40" viewBox="0 0 40 40" fill="none" xmlns="http://www.w3.org/2000/svg">
<path d="M15.8628 16.7811C14.5588 16.7811 13.5314 17.7811 13.5314 19.0021C13.5314 20.219 14.5828 21.2232 15.8628 21.2232C17.1645 21.2232 18.1919 20.219 18.1919 19.0021C18.2183 17.779 17.1645 16.7811 15.8628 16.7811ZM24.2069 16.7811C22.9028 16.7811 21.8755 17.7811 21.8755 19.0021C21.8755 20.219 22.9269 21.2232 24.2069 21.2232C25.5085 21.2232 26.5359 20.219 26.5359 19.0021C26.5335 17.779 25.5085 16.7811 24.2069 16.7811Z" fill="white"/>
<path d="M35.3155 0H4.68452C4.06776 0.00138057 3.45736 0.109043 2.88815 0.31684C2.31894 0.524637 1.80209 0.828498 1.36709 1.21108C0.932091 1.59365 0.587473 2.04746 0.35291 2.54657C0.118347 3.04568 -0.00156639 3.58034 1.54481e-05 4.12V31.16C1.54481e-05 33.44 2.10287 35.28 4.68452 35.28H30.6045L29.3895 31.5768L32.3176 33.9579L35.0821 36.1979L40 40V4.12C40.0016 3.58034 39.8816 3.04568 39.6471 2.54657C39.4125 2.04746 39.0679 1.59365 38.6329 1.21108C38.1979 0.828498 37.6811 0.524637 37.1118 0.31684C36.5426 0.109043 35.9322 0.00138057 35.3155 0ZM26.4902 26.12C26.4902 26.12 25.6674 25.2611 24.9841 24.4968C27.9771 23.7558 29.12 22.1179 29.12 22.1179C28.1816 22.6568 27.2914 23.04 26.4902 23.3011C23.5734 24.3692 20.3612 24.6607 17.2559 24.1389C16.1085 23.9417 14.9842 23.6528 13.8971 23.2758C13.3238 23.0852 12.7667 22.8594 12.2298 22.6C12.16 22.5558 12.0926 22.5389 12.0253 22.4989C11.9892 22.484 11.9572 22.4624 11.9314 22.4358C11.52 22.2379 11.2914 22.0989 11.2914 22.0989C11.2914 22.0989 12.3886 23.6989 15.2926 24.4589C14.6069 25.2168 13.76 26.12 13.76 26.12C8.70978 25.9789 6.79219 23.08 6.79219 23.08C6.79219 16.64 10.0836 11.4211 10.0836 11.4211C13.375 9.25895 16.5053 9.32 16.5053 9.32L16.7338 9.56C12.6196 10.6021 10.7212 12.1811 10.7212 12.1811C10.7212 12.1811 11.2265 11.9411 12.071 11.6021C14.5155 10.6632 16.4571 10.4021 17.2583 10.3411C17.3955 10.3221 17.511 10.3011 17.6481 10.3011C21.6113 9.83372 25.6413 10.4928 29.1441 12.1811C29.1441 12.1811 27.3371 10.6821 23.4514 9.64211L23.7714 9.32211C23.7714 9.32211 26.9041 9.26105 30.1931 11.4232C30.1931 11.4232 33.4845 16.6421 33.4845 23.0821C33.4845 23.08 31.5428 25.9789 26.4902 26.12Z" fill="white"/>
</svg>
