<?xml version="1.0" encoding="iso-8859-1"?>
<!-- Generator: Adobe Illustrator 19.0.0, SVG Export Plug-In . SVG Version: 6.00 Build 0)  -->
<svg version="1.1" id="Capa_1" xmlns="http://www.w3.org/2000/svg" xmlns:xlink="http://www.w3.org/1999/xlink" x="0px" y="0px"
	 viewBox="0 0 501.551 501.551" style="enable-background:new 0 0 501.551 501.551;" xml:space="preserve">
<g>
	<path style="fill:#1185E0;" d="M130.612,41.796v12.016H67.918c-8.882,0-15.673,6.792-15.673,15.673v61.127H41.796
		c-8.882,0-15.673,6.792-15.673,15.673v52.245h31.347v-36.571h20.898v36.571h31.347v-52.245c0-8.882-6.792-15.673-15.673-15.673
		H83.592V85.159h47.02v8.882c0,8.882,6.792,15.673,15.673,15.673h52.245V78.367h-36.571V57.469h36.571V26.122h-52.245
		C137.404,26.122,130.612,32.914,130.612,41.796z"/>
	<path style="fill:#1185E0;" d="M130.612,407.51v13.061h-47.02v-49.633h10.449c8.882,0,15.673-6.792,15.673-15.673V303.02H78.367
		v36.571H57.469V303.02H26.122v52.245c0,8.882,6.792,15.673,15.673,15.673h10.449v65.306c0,8.882,6.792,15.673,15.673,15.673h62.694
		v7.837c0,8.882,6.792,15.673,15.673,15.673h52.245v-31.347h-36.571v-20.898h36.571v-31.347h-52.245
		C137.404,391.837,130.612,398.629,130.612,407.51z"/>
	<path style="fill:#1185E0;" d="M444.082,339.592h-20.898V303.02h-31.347v52.245c0,8.882,6.792,15.673,15.673,15.673h10.449v49.633
		h-47.02V407.51c0-8.882-6.792-15.673-15.673-15.673H303.02v31.347h36.571v20.898H303.02v31.347h52.245
		c8.882,0,15.673-6.792,15.673-15.673v-7.837h62.694c8.882,0,15.673-6.792,15.673-15.673v-65.306h10.449
		c8.882,0,15.673-6.792,15.673-15.673V303.02h-31.347V339.592z"/>
	<path style="fill:#1185E0;" d="M459.755,130.612h-10.449V69.486c0-8.882-6.792-15.673-15.673-15.673h-62.694V41.796
		c0-8.882-6.792-15.673-15.673-15.673H303.02v31.347h36.571v20.898H303.02v31.347h52.245c8.882,0,15.673-6.792,15.673-15.673v-8.882
		h47.02v45.453H407.51c-8.882,0-15.673,6.792-15.673,15.673v52.245h31.347v-36.571h20.898v36.571h31.347v-52.245
		C475.429,137.404,468.637,130.612,459.755,130.612z"/>
</g>
<g>
	<path style="fill:#4DCFE0;" d="M120.163,318.694H15.673C6.792,318.694,0,311.902,0,303.02v-104.49
		c0-8.882,6.792-15.673,15.673-15.673h104.49c8.882,0,15.673,6.792,15.673,15.673v104.49
		C135.837,311.902,129.045,318.694,120.163,318.694z M31.347,287.347h73.143v-73.143H31.347V287.347z"/>
	<path style="fill:#4DCFE0;" d="M303.02,135.837h-104.49c-8.882,0-15.673-6.792-15.673-15.673V15.673
		C182.857,6.792,189.649,0,198.531,0h104.49c8.882,0,15.673,6.792,15.673,15.673v104.49
		C318.694,129.045,311.902,135.837,303.02,135.837z M214.204,104.49h73.143V31.347h-73.143V104.49z"/>
	<path style="fill:#4DCFE0;" d="M303.02,501.551h-104.49c-8.882,0-15.673-6.792-15.673-15.673v-104.49
		c0-8.882,6.792-15.673,15.673-15.673h104.49c8.882,0,15.673,6.792,15.673,15.673v104.49
		C318.694,494.759,311.902,501.551,303.02,501.551z M214.204,470.204h73.143v-73.143h-73.143V470.204z"/>
	<path style="fill:#4DCFE0;" d="M485.878,318.694h-104.49c-8.882,0-15.673-6.792-15.673-15.673v-104.49
		c0-8.882,6.792-15.673,15.673-15.673h104.49c8.882,0,15.673,6.792,15.673,15.673v104.49
		C501.551,311.902,494.759,318.694,485.878,318.694z M397.061,287.347h73.143v-73.143h-73.143V287.347z"/>
</g>
<g>
</g>
<g>
</g>
<g>
</g>
<g>
</g>
<g>
</g>
<g>
</g>
<g>
</g>
<g>
</g>
<g>
</g>
<g>
</g>
<g>
</g>
<g>
</g>
<g>
</g>
<g>
</g>
<g>
</g>
</svg>
