<?xml version="1.0" encoding="iso-8859-1"?>
<!-- Generator: Adobe Illustrator 19.0.0, SVG Export Plug-In . SVG Version: 6.00 Build 0)  -->
<svg version="1.1" id="Capa_1" xmlns="http://www.w3.org/2000/svg" xmlns:xlink="http://www.w3.org/1999/xlink" x="0px" y="0px"
	 viewBox="0 0 430.498 430.498" style="enable-background:new 0 0 430.498 430.498;" xml:space="preserve">
<g>
	<path style="fill:#4DCFE0;" d="M277.42,131.135h-54.335c-8.882,0-15.673-6.792-15.673-15.673s6.792-15.673,15.673-15.673h54.335
		c8.882,0,15.673,6.792,15.673,15.673S286.302,131.135,277.42,131.135z"/>
	<path style="fill:#4DCFE0;" d="M309.812,201.143H195.918c-8.882,0-15.673-6.792-15.673-15.673s6.792-15.673,15.673-15.673h113.894
		c8.882,0,15.673,6.792,15.673,15.673S318.694,201.143,309.812,201.143z"/>
	<path style="fill:#4DCFE0;" d="M309.812,265.927H195.918c-8.882,0-15.673-6.792-15.673-15.673c0-8.882,6.792-15.673,15.673-15.673
		h113.894c8.882,0,15.673,6.792,15.673,15.673C325.486,259.135,318.694,265.927,309.812,265.927z"/>
</g>
<path style="fill:#1185E0;" d="M369.371,0H131.135c-14.629,0-26.122,11.494-26.122,26.122v38.661H61.127
	c-14.629,0-26.122,11.494-26.122,26.122v313.469c0,14.629,11.494,26.122,26.122,26.122h243.461
	c14.629,0,26.122-11.494,26.122-26.122V360.49h38.661c14.629,0,26.122-11.494,26.122-26.122V26.122C395.494,11.494,384,0,369.371,0z
	 M299.363,399.151H66.351V96.131h38.661v238.237c0,14.629,11.494,26.122,26.122,26.122h168.229L299.363,399.151L299.363,399.151z
	 M364.147,329.143H136.359V31.347h227.788V329.143z"/>
<g>
</g>
<g>
</g>
<g>
</g>
<g>
</g>
<g>
</g>
<g>
</g>
<g>
</g>
<g>
</g>
<g>
</g>
<g>
</g>
<g>
</g>
<g>
</g>
<g>
</g>
<g>
</g>
<g>
</g>
</svg>
