<?xml version="1.0" encoding="iso-8859-1"?>
<!-- Generator: Adobe Illustrator 19.0.0, SVG Export Plug-In . SVG Version: 6.00 Build 0)  -->
<svg version="1.1" id="Capa_1" xmlns="http://www.w3.org/2000/svg" xmlns:xlink="http://www.w3.org/1999/xlink" x="0px" y="0px"
	 viewBox="0 0 455.576 455.576" style="enable-background:new 0 0 455.576 455.576;" xml:space="preserve">
<g>
	<path style="fill:#4DCFE0;" d="M357.355,365.453h-25.078v-42.841h-31.347v42.841h-24.033v-42.841h-31.347v42.841h-25.078
		c-8.882,0-15.673,6.792-15.673,15.673s6.792,15.673,15.673,15.673h136.882c8.882,0,15.673-6.792,15.673-15.673
		S366.237,365.453,357.355,365.453z"/>
	<rect x="157.78" y="251.037" style="fill:#4DCFE0;" width="282.122" height="31.347"/>
</g>
<g>
	<path style="fill:#1185E0;" d="M439.902,83.853H173.976v-9.927c0-8.882-6.792-15.673-15.673-15.673H15.673
		C6.792,58.253,0,65.045,0,73.927v307.722c0,8.882,6.792,15.673,15.673,15.673h142.629c8.882,0,15.673-6.792,15.673-15.673v-43.363
		h265.927c8.882,0,15.673-6.792,15.673-15.673V99.527C455.576,90.645,448.784,83.853,439.902,83.853z M142.629,365.975H31.347V89.6
		h111.282L142.629,365.975L142.629,365.975z M424.229,306.939H173.976V115.2h250.253L424.229,306.939L424.229,306.939z"/>
	<path style="fill:#1185E0;" d="M111.804,218.645H61.127c-8.882,0-15.673-6.792-15.673-15.673s6.792-15.673,15.673-15.673h50.678
		c8.882,0,15.673,6.792,15.673,15.673S120.686,218.645,111.804,218.645z"/>
	<path style="fill:#1185E0;" d="M94.041,329.927H78.89c-8.882,0-15.673-6.792-15.673-15.673s6.792-15.673,15.673-15.673h15.151
		c8.882,0,15.673,6.792,15.673,15.673S102.922,329.927,94.041,329.927z"/>
	<path style="fill:#1185E0;" d="M111.804,167.967H61.127c-8.882,0-15.673-6.792-15.673-15.673c0-8.882,6.792-15.673,15.673-15.673
		h50.678c8.882,0,15.673,6.792,15.673,15.673C127.478,161.175,120.686,167.967,111.804,167.967z"/>
</g>
<g>
</g>
<g>
</g>
<g>
</g>
<g>
</g>
<g>
</g>
<g>
</g>
<g>
</g>
<g>
</g>
<g>
</g>
<g>
</g>
<g>
</g>
<g>
</g>
<g>
</g>
<g>
</g>
<g>
</g>
</svg>
