<?xml version="1.0" encoding="iso-8859-1"?>
<!-- Generator: Adobe Illustrator 19.0.0, SVG Export Plug-In . SVG Version: 6.00 Build 0)  -->
<svg version="1.1" id="Capa_1" xmlns="http://www.w3.org/2000/svg" xmlns:xlink="http://www.w3.org/1999/xlink" x="0px" y="0px"
	 viewBox="0 0 439.902 439.902" style="enable-background:new 0 0 439.902 439.902;" xml:space="preserve">
<g>
	<path style="fill:#1185E0;" d="M413.78,361.796H26.122C11.494,361.796,0,350.302,0,335.673V104.229
		C0,89.6,11.494,78.106,26.122,78.106H413.78c14.629,0,26.122,11.494,26.122,26.122v231.445
		C439.902,350.302,428.408,361.796,413.78,361.796z M31.347,330.449h377.208V109.453H31.347V330.449z"/>
	<rect x="138.449" y="266.71" style="fill:#1185E0;" width="163.004" height="31.347"/>
</g>
<g>
	<rect x="63.216" y="140.8" style="fill:#4DCFE0;" width="61.127" height="31.347"/>
	<rect x="147.331" y="140.8" style="fill:#4DCFE0;" width="61.127" height="31.347"/>
	<rect x="231.445" y="140.8" style="fill:#4DCFE0;" width="61.127" height="31.347"/>
	<rect x="315.559" y="140.8" style="fill:#4DCFE0;" width="61.127" height="31.347"/>
	<rect x="63.216" y="206.629" style="fill:#4DCFE0;" width="61.127" height="31.347"/>
	<rect x="147.331" y="206.629" style="fill:#4DCFE0;" width="61.127" height="31.347"/>
	<rect x="231.445" y="206.629" style="fill:#4DCFE0;" width="61.127" height="31.347"/>
	<rect x="315.559" y="206.629" style="fill:#4DCFE0;" width="61.127" height="31.347"/>
</g>
<g>
</g>
<g>
</g>
<g>
</g>
<g>
</g>
<g>
</g>
<g>
</g>
<g>
</g>
<g>
</g>
<g>
</g>
<g>
</g>
<g>
</g>
<g>
</g>
<g>
</g>
<g>
</g>
<g>
</g>
</svg>
