<?xml version="1.0" encoding="iso-8859-1"?>
<!-- Generator: Adobe Illustrator 19.0.0, SVG Export Plug-In . SVG Version: 6.00 Build 0)  -->
<svg version="1.1" id="Capa_1" xmlns="http://www.w3.org/2000/svg" xmlns:xlink="http://www.w3.org/1999/xlink" x="0px" y="0px"
	 viewBox="0 0 447.216 447.216" style="enable-background:new 0 0 447.216 447.216;" xml:space="preserve">
<path style="fill:#4DCFE0;" d="M300.408,282.122l-21.943-21.943L409.6,129.045l-91.429-91.429l-132.18,131.657l-21.943-21.943
	L307.2,4.702c6.269-6.269,16.196-6.269,21.943,0l113.371,113.371c3.135,3.135,4.702,6.792,4.702,10.971
	c0,4.18-1.567,8.359-4.702,10.971L300.408,282.122z"/>
<path style="fill:#1185E0;" d="M427.886,255.478H191.739V19.331c0-8.882-6.792-15.673-15.673-15.673H15.673
	C6.792,3.657,0,10.449,0,19.331v412.212c0,8.882,6.792,15.673,15.673,15.673h160.392h251.82c8.882,0,15.673-6.792,15.673-15.673
	V271.151C443.559,262.269,436.767,255.478,427.886,255.478z M31.347,35.004h129.045v64.261H31.347V35.004z M31.347,130.612h129.045
	v65.829H31.347V130.612z M31.347,227.788h129.045v66.351H31.347V227.788z M31.347,415.869v-90.384h129.045v90.384H31.347z
	 M412.212,415.869H191.739V286.824h220.473L412.212,415.869L412.212,415.869z"/>
<path style="fill:#4DCFE0;" d="M96.131,402.808c-17.763,0-31.869-14.106-31.869-31.869s14.106-31.869,31.869-31.869
	S128,353.176,128,370.939C128,388.702,113.894,402.808,96.131,402.808z"/>
<g>
</g>
<g>
</g>
<g>
</g>
<g>
</g>
<g>
</g>
<g>
</g>
<g>
</g>
<g>
</g>
<g>
</g>
<g>
</g>
<g>
</g>
<g>
</g>
<g>
</g>
<g>
</g>
<g>
</g>
</svg>
