<?xml version="1.0" encoding="iso-8859-1"?>
<!-- Generator: Adobe Illustrator 19.0.0, SVG Export Plug-In . SVG Version: 6.00 Build 0)  -->
<svg version="1.1" id="Capa_1" xmlns="http://www.w3.org/2000/svg" xmlns:xlink="http://www.w3.org/1999/xlink" x="0px" y="0px"
	 viewBox="0 0 423.184 423.184" style="enable-background:new 0 0 423.184 423.184;" xml:space="preserve">
<path style="fill:#1185E0;" d="M211.592,423.184C95.086,423.184,0,328.098,0,211.592S95.086,0,211.592,0
	s211.592,95.086,211.592,211.592S328.098,423.184,211.592,423.184z M211.592,31.347c-99.265,0-180.245,80.98-180.245,180.245
	s80.98,180.245,180.245,180.245s180.245-80.98,180.245-180.245S310.857,31.347,211.592,31.347z"/>
<path style="fill:#4DCFE0;" d="M293.616,233.535h-84.114c-8.882,0-15.673-6.792-15.673-15.673v-90.384
	c0-8.882,6.792-15.673,15.673-15.673s15.673,6.792,15.673,15.673v74.71h68.441c8.882,0,15.673,6.792,15.673,15.673
	S302.498,233.535,293.616,233.535z"/>
<g>
</g>
<g>
</g>
<g>
</g>
<g>
</g>
<g>
</g>
<g>
</g>
<g>
</g>
<g>
</g>
<g>
</g>
<g>
</g>
<g>
</g>
<g>
</g>
<g>
</g>
<g>
</g>
<g>
</g>
</svg>
