<?xml version="1.0" encoding="iso-8859-1"?>
<!-- Generator: Adobe Illustrator 19.0.0, SVG Export Plug-In . SVG Version: 6.00 Build 0)  -->
<svg version="1.1" id="Capa_1" xmlns="http://www.w3.org/2000/svg" xmlns:xlink="http://www.w3.org/1999/xlink" x="0px" y="0px"
	 viewBox="0 0 453.486 453.486" style="enable-background:new 0 0 453.486 453.486;" xml:space="preserve">
<g>
	<path style="fill:#4DCFE0;" d="M323.657,239.804h-83.069c-8.882,0-15.673-6.792-15.673-15.673s6.792-15.673,15.673-15.673h83.069
		c8.882,0,15.673,6.792,15.673,15.673S332.539,239.804,323.657,239.804z"/>
	<path style="fill:#4DCFE0;" d="M193.567,273.763h-67.918c-8.882,0-15.673-6.792-15.673-15.673v-67.918
		c0-8.882,6.792-15.673,15.673-15.673h67.918c8.882,0,15.673,6.792,15.673,15.673v67.918
		C209.241,266.971,202.449,273.763,193.567,273.763z M141.322,242.416h36.571v-36.571h-36.571V242.416z"/>
	<path style="fill:#4DCFE0;" d="M323.657,362.58h-83.069c-8.882,0-15.673-6.792-15.673-15.673c0-8.882,6.792-15.673,15.673-15.673
		h83.069c8.882,0,15.673,6.792,15.673,15.673C339.331,355.788,332.539,362.58,323.657,362.58z"/>
	<path style="fill:#4DCFE0;" d="M193.567,396.539h-67.918c-8.882,0-15.673-6.792-15.673-15.673v-67.918
		c0-8.882,6.792-15.673,15.673-15.673h67.918c8.882,0,15.673,6.792,15.673,15.673v67.918
		C209.241,389.747,202.449,396.539,193.567,396.539z M141.322,365.192h36.571V328.62h-36.571V365.192z"/>
</g>
<path style="fill:#1185E0;" d="M365.975,48.065h-75.233V15.673C290.743,6.792,283.951,0,275.069,0h-96.131
	c-8.882,0-15.673,6.792-15.673,15.673v32.392H87.51c-17.763,0-31.347,13.584-31.347,31.347v342.727
	c0,17.763,13.584,31.347,31.347,31.347h278.465c17.763,0,31.347-13.584,31.347-31.347V79.412
	C397.322,61.649,383.739,48.065,365.975,48.065z M167.967,79.412h118.073v32.914H167.967V79.412z M194.612,31.347h64.784v16.718
	h-64.784V31.347z M365.975,422.139H87.51V79.412l0,0h49.11v38.139c0,14.629,11.494,26.122,26.122,26.122h128.522
	c14.629,0,26.122-11.494,26.122-26.122V79.412h48.588V422.139z"/>
<g>
</g>
<g>
</g>
<g>
</g>
<g>
</g>
<g>
</g>
<g>
</g>
<g>
</g>
<g>
</g>
<g>
</g>
<g>
</g>
<g>
</g>
<g>
</g>
<g>
</g>
<g>
</g>
<g>
</g>
</svg>
