<?xml version="1.0" encoding="iso-8859-1"?>
<!-- Generator: Adobe Illustrator 19.0.0, SVG Export Plug-In . SVG Version: 6.00 Build 0)  -->
<svg version="1.1" id="Capa_1" xmlns="http://www.w3.org/2000/svg" xmlns:xlink="http://www.w3.org/1999/xlink" x="0px" y="0px"
	 viewBox="0 0 475.461 475.461" style="enable-background:new 0 0 475.461 475.461;" xml:space="preserve">
<g>
	<path style="fill:#1185E0;" d="M52.146,398.906c-6.269,0-12.539-3.657-14.629-10.449L0.946,289.714
		c-1.567-3.657-1.045-8.359,0.522-12.016c1.567-3.657,4.702-6.792,8.882-8.359l138.449-50.678
		c15.673-5.747,32.392-4.702,46.498,3.135c7.837,4.18,10.449,13.584,6.792,21.42c-4.18,7.837-13.584,10.449-21.42,6.792
		c-6.269-3.135-14.106-3.657-21.42-1.045l-123.82,45.975l25.6,69.486l124.343-47.02c6.269-2.09,10.971-5.747,13.584-11.494
		c4.18-7.314,13.584-10.449,21.42-5.747c7.314,4.18,10.449,13.584,5.747,21.42c-6.792,11.494-17.241,20.376-30.302,25.078
		l-138.449,51.2C55.804,398.383,53.714,398.906,52.146,398.906z"/>
	<path style="fill:#1185E0;" d="M447.64,373.306c-0.522,0-1.045,0-1.567,0l-146.808-16.718c-14.106-1.567-27.69-8.359-37.094-19.331
		c-5.747-6.792-4.702-16.196,1.567-21.943c6.792-5.747,16.196-4.702,21.943,1.567c3.135,3.657,8.359,7.837,16.718,8.882
		l131.657,15.151l8.359-73.665l-131.135-15.151c-7.837-1.045-15.151,1.567-20.898,6.792c-6.269,5.747-16.196,5.747-21.943-0.522
		c-5.747-6.269-5.747-16.196,0.522-21.943c12.539-11.494,29.257-17.241,45.976-15.151l146.808,16.718
		c4.18,0.522,7.837,2.612,10.449,5.747c2.612,3.135,3.657,7.314,3.135,11.494l-12.016,105.012
		C462.269,367.559,455.477,373.306,447.64,373.306z"/>
</g>
<g>
	<path style="fill:#4DCFE0;" d="M240.75,196.718L240.75,196.718c-8.882,0-15.673-7.314-15.673-15.673l1.045-88.816
		c0-8.359,7.314-15.673,15.673-15.673l0,0c8.882,0,15.673,7.314,15.673,15.673l-1.045,88.816
		C256.424,189.926,249.11,196.718,240.75,196.718z"/>
	<path style="fill:#4DCFE0;" d="M184.326,196.196c-4.702,0-9.404-2.09-12.539-6.269l-31.869-42.318
		c-5.224-6.792-3.657-16.718,3.135-21.943c6.792-5.224,16.718-3.657,21.943,3.135l31.869,42.318
		c5.225,6.792,3.657,16.718-3.135,21.943C191.118,195.151,187.461,196.196,184.326,196.196z"/>
	<path style="fill:#4DCFE0;" d="M298.742,196.196c-3.135,0-6.792-1.045-9.404-3.135c-6.792-5.224-8.359-15.151-3.135-21.943
		l31.869-42.318c5.225-6.792,15.151-8.359,21.943-3.135c6.792,5.224,8.359,15.151,3.135,21.943l-31.869,42.318
		C308.146,194.106,303.444,196.196,298.742,196.196z"/>
</g>
<g>
</g>
<g>
</g>
<g>
</g>
<g>
</g>
<g>
</g>
<g>
</g>
<g>
</g>
<g>
</g>
<g>
</g>
<g>
</g>
<g>
</g>
<g>
</g>
<g>
</g>
<g>
</g>
<g>
</g>
</svg>
