<?xml version="1.0" encoding="iso-8859-1"?>
<!-- Generator: Adobe Illustrator 19.0.0, SVG Export Plug-In . SVG Version: 6.00 Build 0)  -->
<svg version="1.1" id="Capa_1" xmlns="http://www.w3.org/2000/svg" xmlns:xlink="http://www.w3.org/1999/xlink" x="0px" y="0px"
	 viewBox="0 0 485.878 485.878" style="enable-background:new 0 0 485.878 485.878;" xml:space="preserve">
<g>
	<path style="fill:#4DCFE0;" d="M325.486,463.151h-31.347v-75.233h-104.49v75.233h-31.347v-90.906
		c0-8.882,6.792-15.673,15.673-15.673h135.837c8.882,0,15.673,6.792,15.673,15.673V463.151z"/>
	<path style="fill:#4DCFE0;" d="M180.245,293.878c-26.122,0-47.02-20.898-47.02-47.02s20.898-47.02,47.02-47.02
		s47.02,20.898,47.02,47.02S206.367,293.878,180.245,293.878z M180.245,231.184c-8.882,0-15.673,6.792-15.673,15.673
		s6.792,15.673,15.673,15.673s15.673-6.792,15.673-15.673S189.127,231.184,180.245,231.184z"/>
	<path style="fill:#4DCFE0;" d="M305.633,293.878c-26.122,0-47.02-20.898-47.02-47.02s20.898-47.02,47.02-47.02
		c26.122,0,47.02,20.898,47.02,47.02S331.755,293.878,305.633,293.878z M305.633,231.184c-8.882,0-15.673,6.792-15.673,15.673
		s6.792,15.673,15.673,15.673c8.882,0,15.673-6.792,15.673-15.673S314.514,231.184,305.633,231.184z"/>
</g>
<path style="fill:#1185E0;" d="M470.204,212.376h-55.902v-54.335c0-8.882-6.792-15.673-15.673-15.673H257.567V97.959
	c18.808-6.269,32.392-24.033,32.392-44.408c0-26.122-20.898-47.02-47.02-47.02s-47.02,20.898-47.02,47.02
	c0,19.853,12.539,37.094,30.302,43.886v44.931H85.159c-8.882,0-15.673,6.792-15.673,15.673v54.335H15.673
	C6.792,212.376,0,219.167,0,228.049v135.837c0,8.882,6.792,15.673,15.673,15.673h53.812v84.114c0,8.882,6.792,15.673,15.673,15.673
	h313.469c8.882,0,15.673-6.792,15.673-15.673v-84.114h55.902c8.882,0,15.673-6.792,15.673-15.673V228.049
	C485.878,219.167,479.086,212.376,470.204,212.376z M242.939,37.878c8.882,0,15.673,6.792,15.673,15.673
	s-6.792,15.673-15.673,15.673s-15.673-6.792-15.673-15.673S234.057,37.878,242.939,37.878z M31.347,348.212v-104.49h38.139v104.49
	H31.347z M382.955,448H100.833V173.714h282.122V448z M454.531,348.212h-40.229v-104.49h40.229V348.212z"/>
<g>
</g>
<g>
</g>
<g>
</g>
<g>
</g>
<g>
</g>
<g>
</g>
<g>
</g>
<g>
</g>
<g>
</g>
<g>
</g>
<g>
</g>
<g>
</g>
<g>
</g>
<g>
</g>
<g>
</g>
</svg>
