<?xml version="1.0" encoding="iso-8859-1"?>
<!-- Generator: Adobe Illustrator 19.0.0, SVG Export Plug-In . SVG Version: 6.00 Build 0)  -->
<svg version="1.1" id="Capa_1" xmlns="http://www.w3.org/2000/svg" xmlns:xlink="http://www.w3.org/1999/xlink" x="0px" y="0px"
	 viewBox="0 0 475.429 475.429" style="enable-background:new 0 0 475.429 475.429;" xml:space="preserve">
<path style="fill:#4DCFE0;" d="M185.992,389.943c-5.747-8.882-21.42-45.453-22.988-101.878h12.539v-31.347H31.347V125.584h144.196
	V94.237H31.347C13.584,94.237,0,107.82,0,125.584v131.135c0,17.763,13.584,31.347,31.347,31.347h1.567l48.588,150.988
	c3.657,13.584,15.673,22.988,29.257,22.988c1.045,0,2.612,0,3.657,0c22.465-2.09,44.408-8.359,59.559-18.286
	c4.18-2.09,7.314-4.702,9.927-7.314c0.522-0.522,1.045-1.045,1.567-1.567C195.396,420.767,195.396,403.527,185.992,389.943z
	 M160.914,414.498c-0.522,0.522-1.045,0.522-1.567,1.045c-0.522,0.522-1.045,0.522-1.567,1.045
	c-4.18,2.612-19.331,11.494-45.976,13.584v-0.522L66.351,288.065h65.829c1.567,61.649,18.808,104.49,28.212,119.118
	C161.959,409.796,161.959,412.408,160.914,414.498z"/>
<g>
	<path style="fill:#1185E0;" d="M384,369.045c-2.612,0-5.747-0.522-7.837-2.09c-1.567-1.045-134.269-78.89-201.143-78.89
		c-8.882,0-15.673-6.792-15.673-15.673V109.91c0-8.882,6.792-15.673,15.673-15.673c52.245,0,163.004-56.947,201.143-78.89
		c4.702-2.612,10.971-2.612,15.673,0s7.837,7.837,7.837,13.584v324.441c0,5.747-3.135,10.971-7.837,13.584
		C389.224,368.522,386.612,369.045,384,369.045z M190.694,257.763c57.469,6.792,137.927,47.543,177.633,68.963V55.576
		c-40.229,20.898-122.253,61.649-177.633,68.963V257.763z"/>
	<path style="fill:#1185E0;" d="M409.078,246.792H384v-31.347h25.078c19.331,0,35.004-15.673,35.004-35.004
		s-15.673-35.004-35.004-35.004H384V114.09h25.078c36.571,0,66.351,29.78,66.351,66.351S445.649,246.792,409.078,246.792z"/>
</g>
<g>
</g>
<g>
</g>
<g>
</g>
<g>
</g>
<g>
</g>
<g>
</g>
<g>
</g>
<g>
</g>
<g>
</g>
<g>
</g>
<g>
</g>
<g>
</g>
<g>
</g>
<g>
</g>
<g>
</g>
</svg>
