<svg width="70" height="102" viewBox="0 0 70 102" fill="none" xmlns="http://www.w3.org/2000/svg">
<path d="M49.0095 66.9375H63.5823C66.9327 66.9375 69.6564 64.209 70 60.8526V6.08494C69.6564 2.7285 66.9327 0 63.5823 0L6.41773 0C3.06727 0 0.343636 2.7285 0 6.08494L0 60.8526C0.343636 64.209 3.06727 66.9375 6.41773 66.9375H22.2059C23.3132 66.9375 28.8336 67.1734 28.8336 71.8526C28.8336 80.2102 27.0741 84.099 26.4091 85.5652L26.2532 85.9127L27.5355 86.4673V86.5087L26.1132 86.2219C26.0589 86.3267 26.0182 86.4381 25.9923 86.5534C25.5076 87.8336 25.2575 89.1909 25.2541 90.5601C25.2573 97.4036 29.1709 102 35 102C40.8895 102 44.8445 97.4036 44.8445 90.5601C44.8445 89.3137 44.6345 88.0738 44.2145 86.8594C44.1987 86.5052 44.0655 86.1665 43.8359 85.8967C43.7371 85.678 43.6299 85.4633 43.5145 85.2529C42.8177 83.9301 41.3636 81.1824 41.3636 71.8526C41.3636 69.8764 43.4 66.9375 49.0095 66.9375V66.9375ZM3.18182 38.4381L66.8182 38.4381V51L3.18182 51L3.18182 38.4381V38.4381ZM6.41773 3.1875L63.5823 3.1875C65.1764 3.1875 66.4745 4.488 66.8182 6.08494V35.2474L3.18182 35.2474L3.18182 6.08494C3.52545 4.488 4.82364 3.1875 6.41773 3.1875ZM40.7018 86.7446C40.7909 86.9136 40.8673 87.0538 40.9977 87.3471L41.02 87.3981C41.0324 87.4389 41.0462 87.4793 41.0614 87.5192C41.4591 88.5169 41.6595 89.5432 41.6595 90.5601C41.6627 94.5508 39.9127 98.8125 35 98.8125C30.1605 98.8125 28.4391 94.5508 28.4391 90.5601C28.4391 89.5432 28.6395 88.5169 29.0373 87.5192C29.05 87.4809 29.0659 87.4459 29.0755 87.4076L29.1805 87.1781L29.3141 86.8817C30.0523 85.2433 32.0218 80.9019 32.0218 71.8526C32.0155 65.4553 25.8523 63.75 22.1136 63.75H6.41773C4.82364 63.75 3.52545 62.4495 3.18182 60.8526L3.18182 54.1875L66.8182 54.1875V60.8526C66.4745 62.4495 65.1764 63.75 63.5823 63.75H49.0095C41.0645 63.75 38.1818 68.5982 38.1818 71.8526C38.1818 81.9729 39.8841 85.1987 40.7018 86.7446V86.7446Z" fill="white"/>
</svg>
