<svg width="80" height="80" viewBox="0 0 80 80" fill="none" xmlns="http://www.w3.org/2000/svg">
<g clip-path="url(#clip0)">
<path d="M42.005 52.113C48.5381 50.9221 52.8689 44.6604 51.678 38.1273C50.4871 31.5941 44.2255 27.2633 37.6923 28.4542C31.1591 29.6451 26.8283 35.9067 28.0192 42.4399C29.2102 48.9731 35.4718 53.3039 42.005 52.113Z" fill="white"/>
<path d="M37.4277 25.8888L65.7474 20.7265C58.6449 11.2211 46.5296 6.0677 34.027 8.34673C23.9051 10.1918 15.7625 16.6295 11.2808 25.0595L25.7261 41.7304C24.9407 34.3642 29.0722 27.4497 37.4277 25.8888ZM67.1424 22.6323L45.2794 26.6176C49.7201 29.0481 53.03 32.7022 53.9337 37.6594C54.3779 40.0964 54.1376 42.283 53.5243 45.0948L53.5321 45.0934L43.5516 72.5688C44.2576 72.4871 44.9512 72.3018 45.661 72.1724C63.2263 68.9705 74.8227 51.8737 71.6208 34.3084C70.8592 30.1272 69.3711 26.546 67.1424 22.6323ZM42.4181 54.3796C36.3179 55.4916 30.4171 52.5636 27.4651 47.4992L10.1986 27.3881C7.72164 33.0701 6.84741 39.5254 8.04246 46.0813C10.9607 62.0908 25.2042 73.1781 41.0036 72.5942L48.5302 51.6854C46.7898 53.013 44.7183 53.9603 42.4181 54.3796Z" fill="white"/>
</g>
<defs>
<clipPath id="clip0">
<rect width="68" height="68" fill="white" transform="translate(0.453949 12.6484) rotate(-10.3307)"/>
</clipPath>
</defs>
</svg>
