<svg width="78" height="78" viewBox="0 0 78 78" fill="none" xmlns="http://www.w3.org/2000/svg">
<g clip-path="url(#clip0)">
<path d="M4.37639 14.3305L22.3725 68.0618L45.7755 68.9416L66.3132 57.5482L58.1065 1.50343L4.37639 14.3305ZM50.9501 16.5063L53.6884 35.1834L53.7169 35.281L53.7643 35.5097L53.7638 35.5078L55.6601 48.5715L55.8039 49.738L42.9222 56.8455L42.9223 56.846L42.9138 56.8578L28.2294 56.3086L24.7732 45.9587L31.5249 44.3469L33.2874 49.6084L41.2542 49.8501L41.2532 49.8544L41.253 49.8535L48.2724 46.0038L46.9762 37.0598L31.2759 40.808L30.7879 39.3602L29.6533 35.9664L29.0479 34.1432L45.9475 30.1087L44.9367 23.1533L19.1971 29.2981L18.7093 27.8514L17.575 24.4565L16.9691 22.6333L50.6627 14.5896L50.9501 16.5063Z" fill="white"/>
</g>
<defs>
<clipPath id="clip0">
<rect width="64" height="64" fill="white" transform="translate(0 14.8612) rotate(-13.427)"/>
</clipPath>
</defs>
</svg>
