<svg width="79" height="79" viewBox="0 0 79 79" fill="none" xmlns="http://www.w3.org/2000/svg">
<g clip-path="url(#clip0)">
<path fill-rule="evenodd" clip-rule="evenodd" d="M11.0214 41.9416L9.89827 43.6199C9.3896 42.7844 9.34094 41.9298 9.33291 41.0901C9.31572 39.3552 9.72557 37.6887 10.2759 36.0542C10.4752 35.4616 10.5754 34.906 10.3598 34.2607C9.59519 31.9776 9.12224 29.6332 9.22157 27.2076C9.27232 25.9706 9.48847 24.7665 10.1321 23.5769C11.0613 25.247 11.9346 26.8584 13.3178 27.8371C13.8252 26.9897 14.3426 26.1724 14.8135 25.3298C17.6429 20.2735 21.6347 16.4119 26.851 13.9086C33.394 10.7682 40.1813 10.241 47.156 12.3373C47.815 12.5356 48.5173 12.5915 49.2013 12.6983C52.3461 13.19 55.0326 14.5511 57.1904 16.9085C57.5521 17.3029 57.8723 17.735 58.212 18.1492L58.3735 18.0659L56.2343 13.8662C60.5111 17.0891 62.9034 21.4094 64.6858 26.1728C64.9954 25.2257 64.7023 24.3123 64.7256 23.3426C65.0248 23.9472 65.348 24.5416 65.6192 25.158C66.6851 27.581 66.967 30.169 67.279 32.766C68.0156 38.8999 67.1263 44.816 64.7532 50.4622C62.0514 56.8911 57.7456 61.9737 51.2762 64.9005C41.8887 69.147 32.7033 68.6003 23.7933 63.4359C19.5183 60.9597 16.1388 57.5731 13.7419 53.2578C11.9282 49.9911 11.003 46.4649 11.0893 42.7028L11.1064 42.1247C11.1071 42.0911 11.0768 42.057 11.0214 41.9416ZM53.725 23.3651L53.8594 23.1471L56.4507 24.0979C56.269 23.6184 56.1277 23.098 55.8869 22.6295C54.8338 20.5868 53.0303 19.4345 50.9792 18.6046C48.4085 17.5647 45.7027 17.1453 42.9603 16.9058C42.6906 16.8822 42.4219 16.8454 42.1535 16.8147L42.1055 16.5619L45.46 15.2799C43.5392 13.5949 41.1854 13.6987 38.7975 13.7948L39.0256 13.5632C34.1292 13.579 29.6775 14.8647 25.5868 17.4088C21.7813 19.7755 16.7573 25.5125 16.4399 27.852L16.6984 27.6954C18.1397 26.8184 19.6661 26.2204 21.3839 26.1799C21.5708 26.1752 21.8206 25.9716 21.9262 25.7925C22.9835 24.0067 24.2966 22.4553 26.0113 21.2707C26.5514 20.8974 27.1296 20.5798 27.6906 20.2369C27.7052 20.4586 27.6398 20.5717 27.5609 20.673C26.0189 22.6484 25.2537 24.8475 25.6445 27.3738C25.6662 27.5122 25.7489 27.7043 25.8585 27.7574C26.9899 28.3024 28.1177 28.8592 29.2782 29.334C29.6794 29.4977 30.1835 29.5336 30.6162 29.4688C31.4523 29.3439 32.2732 29.1108 33.0981 28.9129C33.6053 28.7912 34.037 29.0403 33.9861 29.4983C33.9114 30.1799 33.7987 30.8257 33.3208 31.4205C32.417 32.5466 31.6386 33.7742 30.7949 34.9496C30.5844 35.2434 30.6329 35.4344 30.8726 35.6944C31.3152 36.1746 31.7508 36.6729 32.1093 37.2166C32.5624 37.904 32.8818 38.6617 32.9379 39.5221C32.2705 39.5815 31.6559 39.6262 31.0448 39.6935C30.4308 39.7611 29.8201 39.8554 29.2067 39.9316C28.4404 40.0273 27.9027 40.4763 27.7176 41.184C27.5032 42.0051 27.7223 42.7232 28.3683 43.1649C29.6843 44.0637 31.0854 44.8001 32.6136 45.269C33.8784 45.658 35.1714 45.6879 36.3297 45.0296C37.1361 44.5717 37.8663 43.9341 38.5217 43.2694C40.5093 41.2555 43.335 40.8307 45.6052 42.2714C46.0113 42.5286 46.3138 42.8704 46.1931 43.3611C46.0772 43.8325 45.7023 44.0529 45.2013 44.0834C44.6806 44.1149 44.2606 44.3389 43.9161 44.7659C43.0068 45.8926 42.1337 47.0624 41.1151 48.0851C39.4743 49.7329 37.4418 50.755 35.2042 51.3713C34.9741 51.4358 34.7488 51.5152 34.4412 51.6123C34.5977 51.7112 34.6564 51.7558 34.7215 51.7881C36.8081 52.8325 39.0154 53.4448 41.349 53.4741C43.9187 53.5063 46.3966 53.0693 48.6006 51.6398C51.071 50.038 52.6791 47.7273 53.8431 45.0815C54.312 44.0147 54.694 42.9102 55.116 41.8234L55.302 41.8062L56.0115 46.1915C58.0589 41.0562 56.6917 36.3562 54.6686 31.5846C55.9662 32.3507 56.6532 33.5122 57.6002 34.5948C57.4919 30.3384 55.763 26.7991 53.725 23.3651Z" fill="white"/>
</g>
<defs>
<clipPath id="clip0">
<rect width="62.6439" height="62.6439" fill="white" transform="translate(0 18.864) rotate(-17.5256)"/>
</clipPath>
</defs>
</svg>
