<svg width="96" height="96" viewBox="0 0 96 96" fill="none" xmlns="http://www.w3.org/2000/svg">
<g clip-path="url(#clip0)">
<path fill-rule="evenodd" clip-rule="evenodd" d="M27.674 31.1326C29.0004 37.2205 30.318 43.2742 31.6655 49.4638C32.433 47.6829 32.9412 46.0023 33.8404 44.5677C34.6777 43.2312 35.7824 41.9579 37.0382 41.017C38.6775 39.7883 41.1028 40.4674 41.8908 42.2017C42.1025 42.6669 41.8143 43.3593 41.7552 43.9478C41.2969 43.7722 40.7262 43.7137 40.4028 43.3993C39.0287 42.0645 38.2872 41.9764 37.1183 43.4138C34.938 46.0962 33.9103 49.2517 33.785 52.6741C33.7612 53.3361 34.2552 54.0163 34.51 54.688C35.1565 54.3747 35.9293 54.1951 36.4255 53.7239C38.0384 52.1918 38.9204 50.2659 39.268 48.0491C39.3435 47.569 40.0199 47.1837 40.4203 46.7545C40.6866 47.1677 41.2358 47.626 41.1755 47.9859C40.6257 51.3274 39.9933 54.6579 39.3085 57.9751C39.2393 58.311 38.6657 58.5432 38.3252 58.8237C38.1254 58.4174 37.7591 58.0108 37.761 57.6052C37.764 56.6858 37.9491 55.7669 38.0526 54.9126L33.4908 57.7173C34.1321 60.7679 34.8287 64.1929 35.5767 67.6069C36.1491 70.2138 36.6629 70.8449 39.3207 71.0325C42.422 71.2512 45.5547 71.2524 48.6632 71.1082C53.2563 70.8957 57.719 69.9375 62.0049 68.2135C63.6005 67.5721 64.1277 66.4082 64.0508 64.7751C63.9794 63.2712 64.0425 61.7606 64.0309 60.2536C64.0072 57.2849 63.974 54.3167 63.9428 51.2245C62.9156 52.0627 62.136 52.9565 61.1536 53.4138C60.4385 53.7469 59.4564 53.5038 58.5925 53.5171C58.6616 52.7143 58.5454 51.833 58.8434 51.1271C59.3285 49.9738 60.0843 48.9334 60.7248 47.8452L60.3498 47.4904C59.8436 47.8782 59.192 48.1712 58.8595 48.6748C58.1829 49.6996 57.531 50.7877 57.1346 51.9412C56.471 53.872 56.0298 55.8788 55.4645 57.8444C55.2186 58.6969 55.0718 59.9733 53.8641 59.6382C52.5723 59.2787 53.3077 58.0905 53.5037 57.2846C53.8152 55.9993 54.2807 54.7508 54.5827 53.7968C53.4347 54.0758 52.2742 54.3854 51.1006 54.6315C50.6041 54.7346 49.9747 54.5316 49.5868 54.7664C48.2968 55.547 47.4025 55.4036 46.9372 53.9275C46.3549 54.4138 45.8868 55.0339 45.2744 55.2592C44.5312 55.5334 43.5077 55.7778 42.9013 55.463C42.4155 55.2109 42.1136 54.0799 42.1857 53.3863C42.329 52.0075 42.7433 50.6489 43.1307 49.3076C43.3704 48.4769 43.5553 47.1742 44.7515 47.5878C45.9334 47.9957 45.0297 49.033 44.8606 49.7984C44.5977 50.9819 44.3273 52.1642 44.0609 53.3467L44.7479 53.6565C45.2938 53.0534 46.0016 52.5304 46.3503 51.8293C46.9215 50.6832 47.1944 49.3916 47.7249 48.222C47.9447 47.7373 48.5039 47.4075 48.9098 47.0074C49.0697 47.5714 49.3584 48.1363 49.3531 48.6999C49.3493 49.2695 49.0168 49.83 48.8949 50.4077C48.7114 51.273 48.5849 52.1503 48.4131 53.1516C49.7822 53.0396 50.2968 52.3956 50.5599 51.3374C51.393 47.9935 52.2399 44.6514 53.1997 41.3424C53.3636 40.7758 54.1048 40.378 54.58 39.9012C54.7189 40.5436 55.097 41.2452 54.9569 41.8177C54.2088 44.8508 53.3197 47.8482 52.5083 50.8659C52.3712 51.3744 52.3733 51.9203 52.3117 52.4488C54.2418 51.2859 55.8228 50.067 56.1834 47.8235C56.272 47.2782 56.8479 46.8117 57.1995 46.3085L58.2645 47.1954C58.5222 46.9193 58.752 46.6129 59.0393 46.3746C59.9439 45.6248 60.9327 44.9407 62.0845 45.7948C63.2763 46.6779 62.5852 47.7613 62.1315 48.7038C61.6381 49.7316 60.9973 50.6878 60.4205 51.6749C61.8431 50.4953 63.8953 49.7962 63.9169 47.6145C63.9683 42.2859 63.9358 36.9565 63.9121 31.6274C63.9056 30.0501 63.8138 28.4729 63.7594 26.835C51.9664 31.2384 40.0822 32.6875 27.674 31.1326ZM37.8162 71.4416C38.5872 72.9168 39.6585 74.328 40.0855 75.913C40.9905 79.2871 41.5348 82.7575 42.2992 86.1723C42.4105 86.6698 42.82 87.3223 43.2536 87.4947C49.6357 90.0288 55.7518 89.865 61.4348 85.5691C62.2827 84.9284 62.3671 84.207 62.3665 83.2068C62.3615 78.3479 60.477 73.4201 62.9964 68.5408C54.6768 71.7005 46.3152 72.7741 37.8162 71.4416ZM53.6641 28.876C56.54 28.2448 59.3321 27.2157 62.1418 26.3049C62.6714 26.1336 63.1033 25.6627 63.5802 25.3299C62.8374 24.8204 62.2222 24.6062 61.6066 24.6079C58.5419 24.6148 55.4763 24.705 52.4115 24.6944C51.9484 24.6926 51.0661 24.2277 51.0878 24.1208C51.6494 21.3599 51.2442 18.36 52.9747 15.8819C55.1617 12.7493 57.3776 9.63822 59.5741 6.52815C57.4449 4.72725 57.4192 4.72763 55.9246 6.70834C55.0794 7.82788 54.3291 9.03211 53.3905 10.0668C49.9175 13.8943 47.6731 18.2025 47.7739 23.5142C47.7968 24.7329 47.1881 25.2474 45.9263 25.4183C41.7605 25.9814 37.5965 26.5991 33.4657 27.3745C31.4188 27.7583 29.4447 28.5333 27.4371 29.131L27.5107 29.8997C28.8411 30.1408 30.1617 30.509 31.5021 30.6027C38.9709 31.1233 46.3688 30.4763 53.6641 28.876ZM51.1113 27.3237C49.6197 28.8567 48.2542 29.0211 46.7748 27.8457L51.1113 27.3237Z" fill="white"/>
</g>
<defs>
<clipPath id="clip0">
<rect width="86" height="86" fill="white" transform="translate(0.168571 10.448) rotate(-6.86486)"/>
</clipPath>
</defs>
</svg>
