<svg width="108" height="82" viewBox="0 0 108 82" fill="none" xmlns="http://www.w3.org/2000/svg">
<path d="M9.15625 66.625C9.49606 66.625 9.82195 66.49 10.0622 66.2497C10.3025 66.0095 10.4375 65.6836 10.4375 65.3438V5.125C10.4375 3.59263 11.4676 2.5625 13 2.5625H95C96.4606 2.5625 97.5625 3.76175 97.5625 5.35306V65.3438C97.5625 65.6836 97.6975 66.0095 97.9378 66.2497C98.178 66.49 98.5039 66.625 98.8438 66.625C99.1836 66.625 99.5095 66.49 99.7497 66.2497C99.99 66.0095 100.125 65.6836 100.125 65.3438V5.35306C100.125 2.34981 97.8751 0 95 0H13C10.0301 0 7.875 2.15506 7.875 5.125V65.3438C7.875 65.6836 8.00999 66.0095 8.25027 66.2497C8.49055 66.49 8.81644 66.625 9.15625 66.625Z" fill="white"/>
<path d="M16.8438 7.6875C16.5039 7.6875 16.1781 7.82249 15.9378 8.06277C15.6975 8.30305 15.5625 8.62894 15.5625 8.96875V65.3438C15.5625 65.6836 15.6975 66.0095 15.9378 66.2497C16.1781 66.49 16.5039 66.625 16.8438 66.625H91.1562C91.4961 66.625 91.822 66.49 92.0622 66.2497C92.3025 66.0095 92.4375 65.6836 92.4375 65.3438V8.96875C92.4375 8.62894 92.3025 8.30305 92.0622 8.06277C91.822 7.82249 91.4961 7.6875 91.1562 7.6875H16.8438ZM89.875 64.0625H18.125V10.25H89.875V64.0625Z" fill="white"/>
<path d="M106.531 71.75H1.46875C1.12894 71.75 0.80305 71.885 0.562769 72.1253C0.322488 72.3655 0.1875 72.6914 0.1875 73.0312L0.1875 76.0422C0.1875 79.1121 3.7955 82 6.59375 82H101.406C104.34 82 107.812 78.5278 107.812 75.5938V73.0312C107.812 72.6914 107.678 72.3655 107.437 72.1253C107.197 71.885 106.871 71.75 106.531 71.75ZM105.25 75.5938C105.25 77.1031 102.916 79.4375 101.406 79.4375H6.59375C4.97681 79.4375 2.75 77.4695 2.75 76.0422V74.3125H105.25V75.5938Z" fill="white"/>
</svg>
