<svg width="58" height="58" viewBox="0 0 58 58" fill="none" xmlns="http://www.w3.org/2000/svg">
<path fill-rule="evenodd" clip-rule="evenodd" d="M0.552361 25.4457C0.552361 25.7642 0.646157 25.9745 0.69872 26.1788C1.04128 27.5079 1.77761 28.6484 2.65124 29.6887C3.89552 31.1714 5.41938 32.3649 6.98039 33.4873C8.33433 34.4606 9.71591 35.4122 11.0753 36.3782C11.3086 36.5441 11.5293 36.7348 11.7826 36.9383C11.5647 37.0561 11.3834 37.1599 11.1949 37.2555C9.40099 38.1654 7.67503 39.1853 6.08411 40.421C5.1253 41.166 4.1982 41.9576 3.54344 42.992C2.48992 44.6559 2.117 46.4285 2.90227 48.3213C3.13155 48.8741 3.48136 49.3517 3.97481 49.7046C4.13477 49.8188 4.3142 49.9321 4.50134 49.9765C4.98075 50.0893 5.46922 50.1632 5.95452 50.2525L7.32885 50.2516C8.84863 50.1161 10.232 49.5954 11.4822 48.7327C13.4361 47.3842 14.7524 45.5762 15.3183 43.2558C15.7298 41.5692 15.7465 39.8809 15.2617 38.2021C15.2168 38.0462 15.1602 37.8935 15.1013 37.7426C15.0424 37.5917 14.9731 37.4449 14.8915 37.2568L18.0072 35.4652L18.0539 35.5051C17.9972 35.6904 17.937 35.8753 17.8857 36.0624C17.5155 37.4145 17.2695 38.7902 17.3579 40.1936C17.4521 41.6889 17.8694 43.0886 18.7449 44.3378C19.4527 45.3483 21.1392 45.3859 21.8914 44.3718C22.1583 44.0116 22.417 43.635 22.6114 43.2331C23.1193 42.1841 23.5897 41.1166 24.075 40.0563L24.1597 39.8623C24.1248 40.3644 24.084 40.8053 24.0655 41.2466C24.0365 41.9358 24.0768 42.6209 24.3124 43.2766C24.5141 43.8376 24.8571 44.2567 25.4996 44.3306C25.9391 44.3809 26.2894 44.1797 26.6125 43.9246C27.1173 43.5263 27.5273 43.0342 27.8318 42.475C28.6932 40.8932 29.5777 39.3208 30.3585 37.6991C31.2031 35.945 31.9417 34.1398 32.726 32.3558L32.8556 32.0396C33.041 32.7677 33.1701 33.481 33.408 34.1561C33.6844 34.9396 34.0265 35.7044 34.399 36.448C34.5753 36.7992 34.5549 37.0271 34.3106 37.3216C33.2884 38.5541 32.2838 39.8016 31.2783 41.0477C31.0558 41.3227 30.8342 41.6028 30.6489 41.9032C30.537 42.0858 30.4627 42.3083 30.4314 42.5212C30.3712 42.9282 30.6226 43.3206 31.0581 43.4144C31.4559 43.5 31.8796 43.5317 32.2852 43.5018C33.6885 43.3985 34.9627 42.906 36.0891 42.0713C37.5487 40.9901 38.0172 39.5148 37.6637 37.7662C37.5681 37.2917 37.3991 36.8305 37.2346 36.3733C37.1608 36.1671 37.1558 36.0225 37.2904 35.8304C38.4572 34.1643 39.454 32.3966 40.3811 30.5882C40.4178 30.5171 40.4555 30.4459 40.5198 30.3698C40.8202 31.9331 41.2724 33.4397 42.0826 34.8068C41.6694 35.2051 41.2602 35.5662 40.89 35.9641C40.0748 36.8404 39.368 37.792 38.9991 38.9524C38.8405 39.4527 38.7186 39.9611 38.7893 40.4953C38.899 41.325 39.5787 41.8642 40.3947 41.6753C42.1411 41.2711 43.6486 40.4482 44.7502 38.9905C45.4915 38.009 45.559 36.9143 45.2486 35.7674C45.1634 35.4557 45.0624 35.1489 44.9536 34.7914C45.3845 34.6577 45.8046 34.4973 46.2391 34.3981C48.4953 33.8833 50.7269 33.973 52.901 34.7878C54.1702 35.2635 55.1956 36.0597 55.8037 37.3121C56.5464 38.8432 56.1358 40.296 54.6926 41.2638C54.5581 41.354 54.404 41.4251 54.2925 41.538C54.2241 41.6073 54.1829 41.746 54.1996 41.8416C54.2092 41.8973 54.3564 41.9671 54.4412 41.9662C54.9156 41.9625 55.3003 41.7138 55.6696 41.4582C56.5949 40.818 57.27 39.9566 57.4155 38.8224L57.444 38.7372L57.4091 37.9986C57.3951 37.956 57.4195 37.9139 57.4164 37.8817C57.2197 36.2301 56.3375 34.9491 55.0542 33.945C53.568 32.7827 51.813 32.3042 49.957 32.2285C48.4445 32.1669 46.9578 32.3916 45.5323 32.9096C45.1258 33.0568 44.723 33.2313 44.3143 33.3958C44.2594 33.2965 44.2005 33.2014 44.1521 33.103C43.7325 32.2439 43.224 31.4229 43.1117 30.4378C43.0319 29.7381 42.934 29.0394 43.1003 28.3475C43.2603 27.6819 43.4687 27.0275 43.6649 26.371C43.766 26.0329 43.6948 25.8435 43.3722 25.6913C43.2598 25.6383 43.1375 25.592 43.0161 25.5744C42.2231 25.4593 41.441 25.525 40.673 25.7484C40.4011 25.8277 40.2035 25.9799 40.1433 26.2808C40.1088 26.4534 40.0386 26.6188 39.9896 26.7892C39.7889 27.4974 39.6466 28.2193 39.3222 28.894C38.5093 30.5864 37.5813 32.2149 36.6315 33.8317C36.5287 34.0061 36.4204 34.1774 36.2908 34.389C35.9573 33.6912 35.6016 33.065 35.4937 32.3309C35.3718 31.5008 35.2758 30.672 35.4824 29.8483C35.636 29.2338 35.8368 28.6307 36.0216 28.0244C36.1091 27.7362 36.0688 27.5849 35.8078 27.4331C35.6759 27.3565 35.5268 27.2885 35.3782 27.2663C34.5558 27.1445 33.7456 27.2083 32.9522 27.4648C32.7061 27.5446 32.577 27.7036 32.5017 27.9574C32.2806 28.7059 32.0921 29.4726 31.7817 30.1845C30.5248 33.0663 29.2315 35.9333 27.9397 38.7997C27.6701 39.3983 27.3542 39.976 27.0502 40.5588C26.9732 40.7065 26.8608 40.8365 26.7647 40.9752C26.6877 40.8841 26.6578 40.8216 26.6583 40.759C26.6605 40.3907 26.6166 40.0114 26.6868 39.6552C26.8993 38.5777 27.144 37.5061 27.4018 36.4385C27.6148 35.5567 27.8627 34.6831 28.0987 33.8072C28.178 33.514 28.1794 33.2399 27.9687 32.9934C27.6148 32.5806 26.8753 32.49 26.4367 32.8081L26.2427 32.9177L26.2803 32.6051C26.3728 31.9349 26.3914 31.267 26.2074 30.6068C25.9781 29.7839 25.3909 29.3104 24.5372 29.3367C24.1393 29.3489 23.7215 29.4169 23.3532 29.5619C21.8039 30.1691 20.6127 31.2443 19.5986 32.538C19.5066 32.6554 19.3851 32.7623 19.2555 32.8343C17.9447 33.5612 16.6297 34.2789 15.3152 34.9994L13.852 35.801C13.4596 35.4267 13.103 35.0383 12.6984 34.7089C11.4627 33.7012 10.2071 32.7183 8.96281 31.7219C7.85991 30.8388 6.79144 29.9189 5.974 28.7494C5.36591 27.8794 4.97395 26.9274 4.93635 25.8517C4.88877 24.481 5.27755 23.2285 5.97536 22.0627C6.86802 20.571 8.08556 19.3738 9.4241 18.2895C10.8401 17.1431 12.3717 16.1698 13.959 15.2812C16.1797 14.0383 18.4639 12.9381 20.9131 12.2117C23.4243 11.4668 25.9722 11.0404 28.6003 11.3376C29.6335 11.4545 30.6367 11.6911 31.5579 12.1963C32.2634 12.5828 32.842 13.089 33.1112 13.8801C33.3767 14.6586 33.3686 15.4475 33.1846 16.2382C32.8108 17.8395 31.934 19.1595 30.8306 20.339C29.0208 22.2725 26.8132 23.5888 24.3278 24.4583C22.8937 24.9599 21.4183 25.2749 19.9031 25.4022C18.6665 25.506 17.4557 25.3963 16.2849 24.9663C15.5096 24.6813 14.8344 24.2454 14.2916 23.6128C14.1946 23.4995 14.0704 23.3767 13.8896 23.4828C13.7125 23.587 13.6812 23.7555 13.7406 23.9264C13.8398 24.21 13.9313 24.5055 14.0858 24.7592C14.4742 25.3958 15.0406 25.8576 15.6641 26.2536C16.8617 27.0153 18.2002 27.2713 19.5881 27.3307C21.6943 27.4218 23.7492 27.1073 25.7751 26.5422C28.6674 25.7357 31.1822 24.3111 33.1991 22.0636C34.8784 20.1922 36.0778 18.0801 36.3347 15.53C36.4602 14.2852 36.3266 13.0659 35.7439 11.9303C35.1118 10.7001 34.1067 9.78523 32.905 9.15494C31.1551 8.23736 29.2664 7.70312 27.3171 7.70312H25.3641C23.0033 7.70312 20.721 8.37964 18.5025 9.18666C16.8232 9.79792 15.1765 10.5193 13.5779 11.3177C10.0965 13.0572 6.85442 15.1548 4.19141 18.0389C2.86466 19.4758 1.74136 21.0612 1.0952 22.9281C0.906251 23.4746 0.726814 24.0605 0.591782 24.6255L0.552361 25.4457ZM13.2063 40.9439C13.0554 42.9644 12.1397 44.6025 10.643 45.9292C9.8011 46.675 8.83549 47.2061 7.71083 47.3928C7.30302 47.4603 6.88569 47.4766 6.49011 47.3076C5.92597 47.0665 5.79955 46.5658 5.78867 46.0325C5.77191 45.1825 6.06961 44.414 6.47788 43.6826C7.01075 42.7292 7.79194 42.0024 8.62614 41.3236C9.9402 40.2538 11.3657 39.3485 12.8257 38.4939L12.9358 38.4486C13.1615 39.2823 13.2689 40.1056 13.2063 40.9439ZM24.606 32.1628C24.4996 32.8081 24.3663 33.4538 24.1778 34.0791C23.5263 36.2437 22.6893 38.3412 21.7844 40.4106C21.6172 40.7935 21.3739 41.1428 21.1623 41.5058C21.1297 41.562 21.0812 41.6105 21.0341 41.6571C20.7722 41.9159 20.5238 41.9023 20.3915 41.5638C20.2375 41.1705 20.1428 40.7495 20.0612 40.3331C20.0064 40.0535 20.0195 39.7599 20.0023 39.4735C20.02 37.4372 20.6412 35.5866 21.6952 33.8638C22.1297 33.1533 22.6028 32.4764 23.3255 32.0269C23.5475 31.8887 23.7968 31.7777 24.0483 31.707C24.4334 31.5987 24.6699 31.7768 24.606 32.1628ZM32.3835 42.0718L35.1788 38.8079C35.2953 40.02 33.2349 42.4397 32.3835 42.0718ZM41.3114 39.8755C41.1138 39.9887 40.8986 40.0703 40.6961 40.175C40.5107 40.271 40.4496 40.1741 40.4441 40.0146C40.4405 39.9063 40.4564 39.793 40.4863 39.6879C40.8637 38.3566 41.5584 37.2201 42.5919 36.2958L42.6644 36.2586C43.1561 37.6338 42.5879 39.1441 41.3114 39.8755Z" fill="white"/>
</svg>
