<svg width="79" height="79" viewBox="0 0 79 79" fill="none" xmlns="http://www.w3.org/2000/svg">
<g clip-path="url(#clip0)">
<path d="M70.1317 50.5572L47.7365 70.8894L45.1807 59.5676L59.1691 47.1645L70.1317 50.5572ZM71.5333 48.5705L64.6764 18.1962L56.5073 25.7492L60.9138 45.2694L71.5271 48.5666L71.5333 48.5705ZM16.5253 62.6586L45.4558 71.3937L42.9022 60.0819L24.9371 54.8922L16.5253 62.6586ZM14.4061 61.4666L7.54929 31.0924L18.171 34.4034L22.5776 53.9237L14.4061 61.4666ZM8.20684 28.8771L31.1769 8.02403L33.6476 18.9686L18.8678 32.0577L18.7491 32.1638L8.20684 28.8771ZM63.1209 16.4805L33.4302 7.51535L35.9008 18.4599L54.8692 23.9253L55.022 23.9701L63.131 16.4782L63.1209 16.4805Z" fill="white"/>
<path d="M42.3461 57.501L24.597 52.3789L20.7161 35.1874L38.5571 40.717L42.3461 57.501ZM44.5994 56.9924L58.4289 44.752L54.5458 27.5505L40.8104 40.2083L44.5994 56.9924ZM21.3424 32.9739L35.217 20.6759L53.0294 25.8207L39.2478 38.5312L21.3424 32.9739Z" fill="white"/>
</g>
<defs>
<clipPath id="clip0">
<rect width="66" height="66" fill="white" transform="translate(0 14.5334) rotate(-12.721)"/>
</clipPath>
</defs>
</svg>
