<svg width="93" height="93" viewBox="0 0 93 93" fill="none" xmlns="http://www.w3.org/2000/svg">
<g clip-path="url(#clip0)">
<path fill-rule="evenodd" clip-rule="evenodd" d="M54.509 83.4359C74.9116 78.967 87.8232 58.7724 83.3701 38.2933C78.9894 18.1471 58.9361 5.13124 39.2127 9.05273C18.4988 13.1715 4.89737 33.6639 9.30691 53.9684C13.843 74.8579 33.9143 87.9453 54.509 83.4359ZM38.7048 11.0446C58.2982 6.77725 77.3723 19.3026 81.7111 39.2846C85.8063 58.1496 73.2115 77.4147 54.0582 81.5839C34.5453 85.8313 15.4123 73.4222 11.1342 53.7451C6.967 34.5752 19.4526 15.2378 38.7048 11.0446ZM27.9643 32.878C28.5168 33.876 27.7008 34.4426 26.7637 34.7243C25.7771 35.0199 24.7908 35.3136 23.6454 35.6556C29.9801 46.2727 36.2202 56.7327 42.6073 67.4358C42.7853 66.9238 42.8713 66.7716 42.889 66.6119C43.634 59.7884 44.3919 52.9665 45.0789 46.137C45.1417 45.514 44.8801 44.7639 44.5429 44.2112C42.7566 41.2819 40.768 38.4691 39.1086 35.4724C37.9734 33.4206 36.7916 32.1902 34.2525 33.0086C33.8201 33.1482 33.0739 32.3145 32.4722 31.9309C32.993 31.4435 33.4443 30.6569 34.0461 30.5166C39.3116 29.2875 44.5963 28.1383 49.8971 27.0749C50.5055 26.9532 51.2465 27.4986 51.9245 27.7347C51.5046 28.3274 51.2088 29.1438 50.6364 29.4622C49.7178 29.9725 48.6153 30.1536 47.4615 30.5143C53.7992 41.1252 60.0068 51.5193 66.4359 62.2836C66.9206 56.1067 67.3868 50.4302 67.8055 44.7497C68.1784 39.6791 66.3713 35.4124 62.9115 31.7701C61.8713 30.6749 60.6643 29.6552 59.931 28.3735C59.0975 26.9152 58.3003 25.2221 58.2203 23.595C58.0852 20.8374 59.8398 19.0721 62.5477 18.2182C44.3764 7.47341 21.7087 17.6632 16.269 34.8137C19.6055 33.9255 22.7789 33.0215 25.9896 32.2772C26.5965 32.1372 27.7176 32.4322 27.9643 32.878ZM44.0843 77.9967C44.0587 78.2174 44.1042 78.447 44.123 78.8002C51.032 79.1899 57.3941 77.67 63.4554 74.0439L47.5127 48.8493C46.3364 58.8403 45.2073 68.4176 44.0843 77.9967ZM38.78 77.8542L14.7467 39.8325C10.84 54.5749 20.4073 73.6912 38.78 77.8542ZM78.5199 41.4234C77.6335 35.047 73.5811 26.8327 71.4528 26.0445C71.7462 28.3973 72.4497 30.9327 72.2961 33.4157C71.9361 39.2655 71.2081 45.0949 70.5537 50.924C69.8423 57.26 69.0465 63.5862 68.2872 69.917C76.6342 62.1533 80.0769 52.6248 78.5199 41.4234Z" fill="white"/>
</g>
<defs>
<clipPath id="clip0">
<rect width="78" height="78" fill="white" transform="translate(0 16.5735) rotate(-12.2678)"/>
</clipPath>
</defs>
</svg>
